<svg width="198" height="198" viewBox="0 0 198 198" fill="none" xmlns="http://www.w3.org/2000/svg">
<path d="M68.5 192H125.5C173 192 192 173 192 125.5V68.5C192 21 173 2 125.5 2H68.5C21 2 2 21 2 68.5V125.5C2 173 21 192 68.5 192Z" fill="#1C2120"/>
<path d="M72.5 176.5H120.5C160.5 176.5 176.5 160.5 176.5 120.5V72.5C176.5 32.5 160.5 16.5 120.5 16.5H72.5C32.5 16.5 16.5 32.5 16.5 72.5V120.5C16.5 160.5 32.5 176.5 72.5 176.5Z" stroke="#06E5D5" stroke-width="10" stroke-linecap="round" stroke-linejoin="round"/>
<path d="M128.452 152.626V120.451" stroke="#EAF8EF" stroke-width="10" stroke-miterlimit="10" stroke-linecap="round" stroke-linejoin="round"/>
<path d="M128.452 61.4625V45.375" stroke="#EAF8EF" stroke-width="10" stroke-miterlimit="10" stroke-linecap="round" stroke-linejoin="round"/>
<path d="M128.452 104.363C140.299 104.363 149.902 94.7587 149.902 82.9126C149.902 71.0657 140.299 61.4622 128.452 61.4622C116.605 61.4622 107.002 71.0657 107.002 82.9126C107.002 94.7587 116.605 104.363 128.452 104.363Z" stroke="#EAF8EF" stroke-width="10" stroke-miterlimit="10" stroke-linecap="round" stroke-linejoin="round"/>
<path d="M69.5479 152.625V136.538" stroke="#EAF8EF" stroke-width="10" stroke-miterlimit="10" stroke-linecap="round" stroke-linejoin="round"/>
<path d="M69.5479 77.55V45.375" stroke="#EAF8EF" stroke-width="10" stroke-miterlimit="10" stroke-linecap="round" stroke-linejoin="round"/>
<path d="M69.5472 136.538C81.3937 136.538 90.9975 126.935 90.9975 115.088C90.9975 103.242 81.3937 93.6384 69.5472 93.6384C57.7007 93.6384 48.0972 103.242 48.0972 115.088C48.0972 126.935 57.7007 136.538 69.5472 136.538Z" stroke="#EAF8EF" stroke-width="10" stroke-miterlimit="10" stroke-linecap="round" stroke-linejoin="round"/>
</svg>
