<svg width="300" height="300" viewBox="0 0 300 300" fill="none" xmlns="http://www.w3.org/2000/svg">
<path d="M12 99C12 54.2165 12 31.8248 25.9125 17.9125C39.8248 4 62.2165 4 107 4C151.783 4 174.175 4 188.087 17.9125C202 31.8248 202 54.2165 202 99C202 143.783 202 166.175 188.087 180.087C174.175 194 151.783 194 107 194C62.2165 194 39.8248 194 25.9125 180.087C12 166.175 12 143.783 12 99Z" fill="#1C2120"/>
<path d="M127.872 138.049L108.18 118.604L102.167 124.543C96.0113 130.622 92.9329 133.661 89.6249 132.944C86.3162 132.226 84.8113 128.193 81.8016 120.125L71.7635 93.2199C65.7594 77.1265 62.7573 69.0799 66.957 64.9326C71.1568 60.7853 79.3053 63.7499 95.6025 69.679L122.848 79.5915C131.018 82.5637 135.103 84.0497 135.829 87.3171C136.555 90.5837 133.478 93.6236 127.322 99.7027L121.308 105.64L140.999 125.086C143.039 127.099 144.058 128.106 144.529 129.229C145.157 130.727 145.157 132.409 144.529 133.907C144.058 135.029 143.039 136.036 140.999 138.049C138.961 140.063 137.941 141.07 136.804 141.535C135.287 142.155 133.584 142.155 132.067 141.535C130.931 141.07 129.911 140.063 127.872 138.049Z" stroke="#EAF8EF" stroke-width="10" stroke-linecap="round" stroke-linejoin="round"/>
<path d="M27 99C27 61.2876 27 42.4314 38.7158 30.7158C50.4314 19 69.2876 19 107 19C144.712 19 163.569 19 175.284 30.7158C187 42.4314 187 61.2876 187 99C187 136.712 187 155.569 175.284 167.284C163.569 179 144.712 179 107 179C69.2876 179 50.4314 179 38.7158 167.284C27 155.569 27 136.712 27 99Z" stroke="#06E5D5" stroke-width="10"/>
</svg>
